<svg viewBox="0 0 256 256" fill="none" xmlns="http://www.w3.org/2000/svg">
<path d="M221.784 183.816C222.786 182.312 223.458 180.613 223.756 178.831C224.053 177.048 223.97 175.223 223.512 173.475C222.848 170.952 221.476 168.854 219.615 167.347C220.512 165.873 221.1 164.233 221.344 162.525C221.881 158.811 220.648 155.103 217.874 152.079C215.716 149.726 212.662 148.431 209.282 148.431C208.889 148.431 208.489 148.452 208.081 148.492C210.643 140.304 211.942 131.774 211.933 123.195C211.933 76.5231 174.097 38.6851 127.424 38.6851C80.75 38.6851 42.9099 76.5191 42.9099 123.195C42.9015 131.752 44.1936 140.261 46.742 148.43H46.6519C43.2719 148.43 40.219 149.724 38.06 152.077C35.287 155.098 34.0529 158.81 34.5899 162.523C34.8346 164.231 35.4231 165.872 36.3199 167.346C34.4579 168.852 33.086 170.95 32.422 173.473C31.9642 175.222 31.8817 177.047 32.1799 178.83C32.4781 180.612 33.1501 182.312 34.1519 183.816C33.9739 184.094 33.8099 184.381 33.6549 184.676C31.9849 187.847 31.877 191.43 33.352 194.767C35.588 199.824 41.1419 203.808 51.9289 208.085C58.6359 210.745 64.779 212.446 64.833 212.461C73.705 214.762 81.729 215.931 88.675 215.931C100.081 215.931 108.591 212.811 114.026 206.647C123.222 208.106 132.594 208.052 141.773 206.489C147.201 212.757 155.76 215.931 167.262 215.931C174.208 215.931 182.232 214.762 191.103 212.461C191.158 212.446 197.298 210.745 204.008 208.085C214.795 203.808 220.35 199.824 222.585 194.767C224.059 191.43 223.952 187.847 222.281 184.676C222.129 184.379 221.961 184.091 221.784 183.816ZM108.638 199.391C114.64 190.59 114.214 183.984 105.98 175.754C97.7441 167.523 92.951 155.487 92.951 155.487C92.951 155.487 91.1621 148.496 87.0821 149.138C83.0021 149.78 80.0091 160.227 88.5521 166.622C97.0941 173.017 86.8521 177.353 83.5641 171.352C80.2761 165.35 71.299 149.923 66.645 146.972C61.991 144.021 58.718 145.675 59.815 151.757C60.36 154.776 65.4281 159.929 70.1631 164.743C74.9671 169.627 79.428 174.163 78.474 175.768C76.581 178.955 69.9141 172.023 69.9141 172.023C69.9141 172.023 49.038 153.025 44.494 157.976C40.304 162.539 46.765 166.418 56.7211 172.397C57.5671 172.905 58.4391 173.429 59.3321 173.969C70.7231 180.865 71.609 182.684 69.992 185.293C69.395 186.257 65.582 183.968 60.892 181.153C52.897 176.352 42.3551 170.023 40.8661 175.688C39.5781 180.591 47.334 183.595 54.368 186.32C60.228 188.59 65.5881 190.666 64.7991 193.484C63.9821 196.406 59.5531 193.969 54.7121 191.305C49.2771 188.314 43.3221 185.038 41.3731 188.735C37.6901 195.725 66.7831 203.954 67.0231 204.015C76.4231 206.453 100.295 211.619 108.638 199.391ZM147.303 199.391C141.301 190.59 141.727 183.984 149.962 175.754C158.197 167.523 162.99 155.487 162.99 155.487C162.99 155.487 164.779 148.496 168.859 149.138C172.939 149.78 175.932 160.227 167.39 166.622C158.847 173.017 169.089 177.353 172.377 171.352C175.666 165.35 184.637 149.923 189.291 146.972C193.945 144.021 197.22 145.675 196.122 151.757C195.578 154.776 190.509 159.929 185.774 164.744C180.97 169.628 176.509 174.163 177.462 175.768C179.355 178.955 186.027 172.019 186.027 172.019C186.027 172.019 206.902 153.022 211.448 157.973C215.637 162.535 209.176 166.415 199.219 172.394C198.348 172.917 197.478 173.441 196.609 173.966C185.218 180.862 184.332 182.681 185.948 185.289C186.546 186.254 190.359 183.964 195.048 181.149C203.044 176.349 213.586 170.019 215.075 175.685C216.364 180.588 208.607 183.592 201.573 186.317C195.713 188.587 190.353 190.663 191.141 193.481C191.957 196.402 196.385 193.965 201.225 191.301C206.66 188.31 212.616 185.032 214.564 188.732C218.248 195.726 189.15 203.947 188.915 204.007C179.515 206.453 155.643 211.619 147.303 199.391Z" fill="#FFD21E"/>
<path fill-rule="evenodd" clip-rule="evenodd" d="M152.047 102.567C153.229 102.985 154.108 104.257 154.944 105.468C156.074 107.104 157.126 108.627 158.74 107.769C160.644 106.756 162.205 105.202 163.225 103.302C164.246 101.402 164.681 99.2427 164.475 97.096C164.321 95.4908 163.813 93.9398 162.987 92.5548C162.161 91.1697 161.038 89.985 159.7 89.0862C158.361 88.1874 156.839 87.5968 155.245 87.3569C153.65 87.117 152.022 87.2339 150.478 87.699C148.934 88.1639 147.513 88.9653 146.316 90.0455C145.119 91.1257 144.176 92.4578 143.556 93.946C142.936 95.4342 142.653 97.0415 142.728 98.652C142.804 100.263 143.235 101.836 143.992 103.26C144.74 104.667 146.4 104.003 148.152 103.302C149.525 102.753 150.956 102.181 152.047 102.567ZM100.672 102.567C99.49 102.985 98.611 104.258 97.775 105.468C96.645 107.105 95.592 108.627 93.979 107.769C91.5845 106.501 89.7482 104.386 88.8278 101.838C87.9075 99.2895 87.9692 96.4896 89.0008 93.9841C90.0324 91.4786 91.9601 89.4471 94.408 88.2855C96.856 87.1239 99.6488 86.9156 102.242 87.701C104.307 88.3228 106.141 89.5427 107.513 91.2065C108.885 92.8704 109.732 94.9035 109.949 97.049C110.165 99.1945 109.74 101.356 108.728 103.26C107.979 104.667 106.319 104.003 104.567 103.303C103.193 102.753 101.764 102.181 100.672 102.567ZM144.099 149.318C152.242 142.903 155.233 132.429 155.233 125.977C155.233 120.877 151.802 122.482 146.309 125.202L145.999 125.355C140.957 127.852 134.245 131.177 126.877 131.177C119.508 131.177 112.796 127.852 107.755 125.354C102.084 122.545 98.527 120.783 98.527 125.978C98.527 132.634 101.709 143.563 110.443 149.912C111.596 147.573 113.219 145.497 115.211 143.813C117.202 142.129 119.52 140.874 122.018 140.126C122.89 139.866 123.788 141.367 124.707 142.904C125.594 144.386 126.501 145.902 127.423 145.902C128.406 145.902 129.371 144.408 130.314 142.95C131.299 141.425 132.26 139.94 133.189 140.237C137.864 141.738 141.775 144.993 144.099 149.318Z" fill="#32343D"/>
<path d="M144.097 149.317C139.856 152.659 134.219 154.9 126.878 154.9C119.981 154.9 114.587 152.922 110.443 149.911C111.596 147.572 113.219 145.495 115.211 143.812C117.202 142.128 119.52 140.873 122.018 140.125C123.73 139.614 125.545 145.901 127.423 145.901C129.433 145.901 131.37 139.655 133.189 140.236C137.863 141.738 141.773 144.993 144.097 149.317Z" fill="#FF323D"/>
<path fill-rule="evenodd" clip-rule="evenodd" d="M81.2 111.64C80.2312 112.288 79.1173 112.687 77.9572 112.801C76.7971 112.916 75.6267 112.742 74.55 112.295C73.6893 111.94 72.9072 111.418 72.2488 110.759C71.5903 110.101 71.0684 109.319 70.713 108.458C70.267 107.381 70.0935 106.211 70.2082 105.051C70.3228 103.891 70.7219 102.777 71.37 101.808C72.1488 100.642 73.2558 99.7333 74.5512 99.1967C75.8466 98.6601 77.272 98.5197 78.6471 98.7935C80.0223 99.0672 81.2853 99.7427 82.2764 100.734C83.2675 101.726 83.9422 102.99 84.215 104.365C84.4883 105.74 84.3477 107.165 83.8113 108.46C83.2748 109.755 82.3654 110.861 81.2 111.64ZM182.613 111.64C181.644 112.288 180.53 112.687 179.37 112.801C178.209 112.916 177.039 112.742 175.962 112.295C175.101 111.939 174.319 111.418 173.661 110.759C173.003 110.101 172.481 109.319 172.125 108.458C171.68 107.381 171.507 106.211 171.621 105.051C171.736 103.891 172.135 102.777 172.782 101.808C173.364 100.936 174.133 100.205 175.032 99.6658C175.931 99.1269 176.938 98.7942 177.981 98.6917C179.025 98.5891 180.078 98.7193 181.064 99.0728C182.051 99.4264 182.947 99.9944 183.688 100.736C184.68 101.727 185.355 102.99 185.628 104.365C185.902 105.74 185.761 107.165 185.224 108.46C184.687 109.755 183.779 110.861 182.613 111.64Z" fill="#FFAD03"/>
</svg>
