<svg fill="currentColor" role="img" viewBox="0 0 24 24" xmlns="http://www.w3.org/2000/svg"><title>Mistral AI</title><path d="M21.828 6.207h-2.483V3.724h2.483v2.483zM21.828 11.172h-2.483V8.69h2.483v2.483zM21.828 16.138h-2.483v-2.483h2.483v2.483zM16.862 21.103h-2.483V18.62h2.483v2.483zM11.897 21.103H9.414V18.62h2.483v2.483zM6.931 21.103H4.448V18.62h2.483v2.483zM4.448 3.724h2.483v2.483H4.448zM4.448 8.69h2.483v2.483H4.448zM4.448 13.655h2.483v2.483H4.448zM9.414 8.69h2.483v2.483H9.414zM9.414 13.655h2.483v2.483H9.414zM14.379 8.69h2.483v2.483h-2.483zM14.379 13.655h2.483v2.483h-2.483z"/></svg>
