<svg width="400" height="400" viewBox="0 0 400 400" fill="none" xmlns="http://www.w3.org/2000/svg">
<path d="M168.791 163.45V138.161C168.791 136.031 169.59 134.433 171.453 133.37L222.298 104.088C229.219 100.095 237.471 98.2329 245.988 98.2329C277.931 98.2329 298.163 122.99 298.163 149.342C298.163 151.205 298.163 153.335 297.897 155.465L245.189 124.585C241.995 122.723 238.8 122.723 235.606 124.585L168.791 163.45ZM287.514 261.943V201.515C287.514 197.787 285.916 195.126 282.723 193.263L215.908 154.398L237.736 141.886C239.599 140.823 241.196 140.823 243.059 141.886L293.904 171.168C308.546 179.687 318.394 197.787 318.394 215.355C318.394 235.585 306.416 254.22 287.514 261.941V261.943ZM153.086 208.704L131.257 195.927C129.395 194.864 128.596 193.265 128.596 191.136V132.573C128.596 104.091 150.424 82.5275 179.972 82.5275C191.154 82.5275 201.533 86.2551 210.32 92.9097L157.879 123.257C154.686 125.119 153.088 127.781 153.088 131.509V208.706L153.086 208.704ZM200.07 235.855L168.791 218.287V181.021L200.07 163.452L231.346 181.021V218.287L200.07 235.855ZM220.167 316.78C208.986 316.78 198.607 313.052 189.82 306.398L242.26 276.05C245.454 274.188 247.052 271.526 247.052 267.798V190.601L269.147 203.378C271.009 204.442 271.809 206.039 271.809 208.17V266.732C271.809 295.214 249.714 316.778 220.167 316.778V316.78ZM157.078 257.418L106.233 228.137C91.5915 219.618 81.7435 201.518 81.7435 183.949C81.7435 163.452 93.9887 145.085 112.887 137.365V198.057C112.887 201.785 114.486 204.446 117.679 206.309L184.229 244.906L162.401 257.418C160.539 258.482 158.941 258.482 157.078 257.418ZM154.152 301.075C124.071 301.075 101.976 278.448 101.976 250.497C101.976 248.367 102.243 246.237 102.508 244.108L154.948 274.455C158.142 276.318 161.338 276.318 164.531 274.455L231.346 235.858V261.147C231.346 263.276 230.547 264.874 228.684 265.938L177.84 295.219C170.919 299.212 162.666 301.075 154.149 301.075H154.152ZM220.167 332.751C252.378 332.751 279.262 309.858 285.387 279.511C315.2 271.791 334.366 243.84 334.366 215.358C334.366 196.723 326.381 178.623 312.006 165.579C313.337 159.989 314.136 154.398 314.136 148.81C314.136 110.745 283.257 82.2601 247.586 82.2601C240.4 82.2601 233.479 83.3236 226.557 85.7208C214.577 74.0077 198.072 66.5547 179.972 66.5547C147.762 66.5547 120.878 89.4462 114.753 119.794C84.9396 127.514 65.7734 155.465 65.7734 183.947C65.7734 202.581 73.7585 220.681 88.1335 233.725C86.8026 239.316 86.0037 244.906 86.0037 250.495C86.0037 288.56 116.883 317.045 152.553 317.045C159.74 317.045 166.661 315.981 173.583 313.584C185.56 325.297 202.065 332.751 220.167 332.751Z" fill="currentColor"/>
</svg>
